<?xml version="1.0" standalone="no"?>
<!DOCTYPE svg PUBLIC "-//W3C//DTD SVG 20010904//EN"
 "http://www.w3.org/TR/2001/REC-SVG-20010904/DTD/svg10.dtd">
<svg version="1.0" xmlns="http://www.w3.org/2000/svg"
 width="512.000000pt" height="512.000000pt" viewBox="0 0 512.000000 512.000000"
 preserveAspectRatio="xMidYMid meet">
<metadata>
Created by potrace 1.14, written by Peter Selinger 2001-2017
</metadata>
<g transform="translate(0.000000,512.000000) scale(0.100000,-0.100000)"
fill="#000000" stroke="none">
<path d="M2350 4780 l-25 -19 -3 -205 c-3 -203 -3 -206 -23 -195 -20 10 -128
15 -178 8 -13 -2 -52 -17 -85 -34 l-60 -30 -49 48 c-82 80 -172 117 -297 123
-134 5 -248 -42 -343 -141 -39 -42 -107 -165 -107 -196 0 -13 -13 -20 -52 -28
-28 -7 -75 -25 -104 -42 -54 -31 -60 -30 -68 12 -2 13 -17 76 -31 139 -15 63
-29 125 -31 138 -10 53 -38 104 -61 113 -13 5 -155 9 -314 9 -316 0 -342 -4
-355 -55 -9 -35 14 -85 43 -96 13 -5 138 -9 278 -9 l254 0 12 -57 c7 -32 13
-60 14 -63 1 -3 5 -21 9 -40 4 -19 28 -117 52 -217 24 -100 45 -193 48 -205 2
-13 34 -149 71 -303 37 -154 69 -291 71 -305 3 -14 14 -61 26 -105 11 -44 22
-91 25 -105 2 -14 46 -203 98 -421 52 -218 96 -407 99 -420 2 -13 16 -73 31
-134 15 -60 28 -119 31 -130 2 -11 6 -31 9 -45 5 -22 0 -28 -34 -43 -74 -33
-136 -106 -165 -194 -20 -59 -21 -278 -3 -341 38 -128 158 -224 288 -231 12
-1 8 -15 -20 -72 -31 -63 -35 -81 -37 -158 -3 -124 28 -201 116 -290 83 -84
156 -115 275 -117 167 -3 306 88 374 243 21 48 25 74 26 154 0 90 -2 100 -36
167 l-35 72 796 0 796 0 -35 -71 c-31 -63 -35 -81 -37 -158 -3 -118 28 -201
106 -281 93 -97 172 -129 301 -126 164 5 292 92 358 243 21 48 25 74 26 154 0
90 -2 100 -36 167 l-35 72 163 0 c175 0 215 9 228 50 9 28 -3 76 -22 92 -13
11 -320 14 -1663 18 l-1647 5 -37 29 c-55 41 -66 77 -66 206 0 129 11 165 66
206 l37 29 1561 5 c1637 5 1597 4 1610 47 4 14 53 243 72 338 2 11 6 29 8 40
2 11 21 101 41 200 20 99 38 187 40 195 18 81 193 920 216 1035 44 214 37 225
-142 225 l-99 0 -81 162 -81 161 17 38 c14 30 16 60 13 156 -4 128 -8 141 -68
206 -59 64 -86 72 -250 72 -133 0 -149 -2 -190 -23 -49 -27 -81 -60 -108 -112
-25 -50 -25 -298 0 -313 14 -10 7 -30 -68 -179 -52 -103 -90 -168 -99 -168
-13 0 -15 73 -17 540 -3 502 -4 541 -21 557 -17 17 -60 18 -690 20 -651 3
-673 2 -697 -17z"/>
</g>
</svg>
