<svg id="visual" viewBox="0 0 1920 90" width="1920" height="90" xmlns="http://www.w3.org/2000/svg" xmlns:xlink="http://www.w3.org/1999/xlink" version="1.1"><path d="M0 15L175 15L175 12L349 12L349 14L524 14L524 8L698 8L698 7L873 7L873 8L1047 8L1047 14L1222 14L1222 9L1396 9L1396 12L1571 12L1571 11L1745 11L1745 7L1920 7L1920 20L1920 0L1920 0L1745 0L1745 0L1571 0L1571 0L1396 0L1396 0L1222 0L1222 0L1047 0L1047 0L873 0L873 0L698 0L698 0L524 0L524 0L349 0L349 0L175 0L175 0L0 0Z" fill="#fa7268"></path><path d="M0 24L175 24L175 22L349 22L349 19L524 19L524 19L698 19L698 23L873 23L873 14L1047 14L1047 24L1222 24L1222 15L1396 15L1396 17L1571 17L1571 25L1745 25L1745 18L1920 18L1920 30L1920 18L1920 5L1745 5L1745 9L1571 9L1571 10L1396 10L1396 7L1222 7L1222 12L1047 12L1047 6L873 6L873 5L698 5L698 6L524 6L524 12L349 12L349 10L175 10L175 13L0 13Z" fill="#ea5e66"></path><path d="M0 60L175 60L175 44L349 44L349 35L524 35L524 49L698 49L698 49L873 49L873 32L1047 32L1047 38L1222 38L1222 43L1396 43L1396 51L1571 51L1571 49L1745 49L1745 50L1920 50L1920 51L1920 28L1920 16L1745 16L1745 23L1571 23L1571 15L1396 15L1396 13L1222 13L1222 22L1047 22L1047 12L873 12L873 21L698 21L698 17L524 17L524 17L349 17L349 20L175 20L175 22L0 22Z" fill="#d84a64"></path><path d="M0 81L175 81L175 69L349 69L349 75L524 75L524 69L698 69L698 68L873 68L873 66L1047 66L1047 73L1222 73L1222 75L1396 75L1396 65L1571 65L1571 79L1745 79L1745 77L1920 77L1920 72L1920 49L1920 48L1745 48L1745 47L1571 47L1571 49L1396 49L1396 41L1222 41L1222 36L1047 36L1047 30L873 30L873 47L698 47L698 47L524 47L524 33L349 33L349 42L175 42L175 58L0 58Z" fill="#c53762"></path><path d="M0 91L175 91L175 91L349 91L349 91L524 91L524 91L698 91L698 91L873 91L873 91L1047 91L1047 91L1222 91L1222 91L1396 91L1396 91L1571 91L1571 91L1745 91L1745 91L1920 91L1920 91L1920 70L1920 75L1745 75L1745 77L1571 77L1571 63L1396 63L1396 73L1222 73L1222 71L1047 71L1047 64L873 64L873 66L698 66L698 67L524 67L524 73L349 73L349 67L175 67L175 79L0 79Z" fill="#b0235f"></path></svg>