<svg id="visual" viewBox="0 0 1920 90" width="1920" height="90" xmlns="http://www.w3.org/2000/svg" xmlns:xlink="http://www.w3.org/1999/xlink" version="1.1"><g stroke-width="1" stroke-linejoin="bevel"><path d="M1048.7 0L844.3 90L1059.7 90Z" fill="#5a2857" stroke="#5a2857"></path><path d="M1048.7 0L816.3 0L844.3 90Z" fill="#302b44" stroke="#302b44"></path><path d="M816.3 0L647 90L844.3 90Z" fill="#811652" stroke="#811652"></path><path d="M1059.7 90L1267 0L1048.7 0Z" fill="#302b44" stroke="#302b44"></path><path d="M816.3 0L618 0L647 90Z" fill="#2a2a3c" stroke="#2a2a3c"></path><path d="M1059.7 90L1295 90L1267 0Z" fill="#5a2857" stroke="#5a2857"></path><path d="M1295 90L1472.3 90L1267 0Z" fill="#5a2857" stroke="#5a2857"></path><path d="M618 0L403.7 90L647 90Z" fill="#302b44" stroke="#302b44"></path><path d="M618 0L396.7 0L403.7 90Z" fill="#5a2857" stroke="#5a2857"></path><path d="M1472.3 90L1520.3 0L1267 0Z" fill="#422c51" stroke="#422c51"></path><path d="M396.7 0L243.3 90L403.7 90Z" fill="#382c4b" stroke="#382c4b"></path><path d="M396.7 0L239.3 0L243.3 90Z" fill="#672457" stroke="#672457"></path><path d="M1472.3 90L1708.7 90L1520.3 0Z" fill="#382c4b" stroke="#382c4b"></path><path d="M1708.7 90L1721.7 0L1520.3 0Z" fill="#741e56" stroke="#741e56"></path><path d="M239.3 0L0 90L243.3 90Z" fill="#262833" stroke="#262833"></path><path d="M239.3 0L0 0L0 90Z" fill="#382c4b" stroke="#382c4b"></path><path d="M1708.7 90L1920 90L1721.7 0Z" fill="#2a2a3c" stroke="#2a2a3c"></path><path d="M1920 90L1920 0L1721.7 0Z" fill="#672457" stroke="#672457"></path></g></svg>