<svg id="visual" viewBox="0 0 1526 962" width="1526" height="962" xmlns="http://www.w3.org/2000/svg" xmlns:xlink="http://www.w3.org/1999/xlink" version="1.1"><path d="M0 136L139 165L277 145L416 59L555 59L694 126L832 126L971 88L1110 68L1249 68L1387 97L1526 126L1526 0L1387 0L1249 0L1110 0L971 0L832 0L694 0L555 0L416 0L277 0L139 0L0 0Z" fill="#2a3144"></path><path d="M0 232L139 251L277 242L416 232L555 155L694 261L832 232L971 222L1110 222L1249 193L1387 299L1526 251L1526 124L1387 95L1249 66L1110 66L971 86L832 124L694 124L555 57L416 57L277 143L139 163L0 134Z" fill="#263c6c"></path><path d="M0 530L139 444L277 434L416 395L555 405L694 424L832 597L971 482L1110 549L1249 482L1387 588L1526 376L1526 249L1387 297L1249 191L1110 220L971 220L832 230L694 259L555 153L416 230L277 240L139 249L0 230Z" fill="#1d4796"></path><path d="M0 819L139 732L277 742L416 867L555 694L694 723L832 742L971 809L1110 780L1249 848L1387 828L1526 723L1526 374L1387 586L1249 480L1110 547L971 480L832 595L694 422L555 403L416 393L277 432L139 442L0 528Z" fill="#1550c1"></path><path d="M0 963L139 963L277 963L416 963L555 963L694 963L832 963L971 963L1110 963L1249 963L1387 963L1526 963L1526 721L1387 826L1249 846L1110 778L971 807L832 740L694 721L555 692L416 865L277 740L139 730L0 817Z" fill="#2457eb"></path></svg>