<svg id="visual" viewBox="0 0 1920 1080" width="1920" height="1080" xmlns="http://www.w3.org/2000/svg" xmlns:xlink="http://www.w3.org/1999/xlink" version="1.1"><g stroke-width="1" stroke-linejoin="bevel"><path d="M837.3 563L866.3 398L665 388Z" fill="#00101c" stroke="#00101c"></path><path d="M665 388L616 500L837.3 563Z" fill="#232631" stroke="#232631"></path><path d="M823.3 168L622 201L665 388Z" fill="#0e1823" stroke="#0e1823"></path><path d="M421.7 352L447.7 515L616 500Z" fill="#0e1823" stroke="#0e1823"></path><path d="M605 758L868.3 748L837.3 563Z" fill="#0e1823" stroke="#0e1823"></path><path d="M1100.7 545L1100.7 391L866.3 398Z" fill="#232631" stroke="#232631"></path><path d="M866.3 398L823.3 168L665 388Z" fill="#232631" stroke="#232631"></path><path d="M421.7 352L616 500L665 388Z" fill="#181e29" stroke="#181e29"></path><path d="M616 500L605 758L837.3 563Z" fill="#0a1520" stroke="#0a1520"></path><path d="M447.7 515L605 758L616 500Z" fill="#121a25" stroke="#121a25"></path><path d="M1100.7 545L866.3 398L837.3 563Z" fill="#0e1823" stroke="#0e1823"></path><path d="M866.3 398L1076.7 176L823.3 168Z" fill="#1c212c" stroke="#1c212c"></path><path d="M1040.7 758L1100.7 545L837.3 563Z" fill="#262833" stroke="#262833"></path><path d="M622 201L421.7 352L665 388Z" fill="#05131e" stroke="#05131e"></path><path d="M855.3 935L1040.7 758L868.3 748Z" fill="#151c27" stroke="#151c27"></path><path d="M868.3 748L1040.7 758L837.3 563Z" fill="#262833" stroke="#262833"></path><path d="M622 201L426.7 214L421.7 352Z" fill="#00101c" stroke="#00101c"></path><path d="M604 0L426.7 214L622 201Z" fill="#181e29" stroke="#181e29"></path><path d="M1100.7 391L1076.7 176L866.3 398Z" fill="#00101c" stroke="#00101c"></path><path d="M447.7 515L409.7 747L605 758Z" fill="#00101c" stroke="#00101c"></path><path d="M208.3 525L409.7 747L447.7 515Z" fill="#1c212c" stroke="#1c212c"></path><path d="M1039.7 0L817.3 0L823.3 168Z" fill="#1f232e" stroke="#1f232e"></path><path d="M823.3 168L604 0L622 201Z" fill="#262833" stroke="#262833"></path><path d="M673 936L868.3 748L605 758Z" fill="#181e29" stroke="#181e29"></path><path d="M673 936L855.3 935L868.3 748Z" fill="#00101c" stroke="#00101c"></path><path d="M429.7 871L673 936L605 758Z" fill="#1f232e" stroke="#1f232e"></path><path d="M817.3 0L604 0L823.3 168Z" fill="#0a1520" stroke="#0a1520"></path><path d="M1280 556L1254 358L1100.7 391Z" fill="#00101c" stroke="#00101c"></path><path d="M1100.7 391L1254 358L1076.7 176Z" fill="#181e29" stroke="#181e29"></path><path d="M1280 556L1100.7 391L1100.7 545Z" fill="#1c212c" stroke="#1c212c"></path><path d="M409.7 747L429.7 871L605 758Z" fill="#1f232e" stroke="#1f232e"></path><path d="M1267 688L1280 556L1100.7 545Z" fill="#05131e" stroke="#05131e"></path><path d="M1267 688L1100.7 545L1040.7 758Z" fill="#151c27" stroke="#151c27"></path><path d="M1249 161L1039.7 0L1076.7 176Z" fill="#232631" stroke="#232631"></path><path d="M1076.7 176L1039.7 0L823.3 168Z" fill="#151c27" stroke="#151c27"></path><path d="M426.7 214L222.3 353L421.7 352Z" fill="#00101c" stroke="#00101c"></path><path d="M421.7 352L208.3 525L447.7 515Z" fill="#262833" stroke="#262833"></path><path d="M409.7 747L174.3 880L429.7 871Z" fill="#0e1823" stroke="#0e1823"></path><path d="M242.3 141L222.3 353L426.7 214Z" fill="#0e1823" stroke="#0e1823"></path><path d="M1255 889L1267 688L1040.7 758Z" fill="#00101c" stroke="#00101c"></path><path d="M855.3 935L1068.7 926L1040.7 758Z" fill="#1f232e" stroke="#1f232e"></path><path d="M222.3 353L208.3 525L421.7 352Z" fill="#05131e" stroke="#05131e"></path><path d="M1254 358L1249 161L1076.7 176Z" fill="#1f232e" stroke="#1f232e"></path><path d="M1280 0L1249 161L1470.3 160Z" fill="#232631" stroke="#232631"></path><path d="M604 0L422.7 0L426.7 214Z" fill="#181e29" stroke="#181e29"></path><path d="M422.7 0L242.3 141L426.7 214Z" fill="#1c212c" stroke="#1c212c"></path><path d="M208.3 525L197.3 718L409.7 747Z" fill="#232631" stroke="#232631"></path><path d="M673 936L881.3 1080L855.3 935Z" fill="#00101c" stroke="#00101c"></path><path d="M855.3 935L881.3 1080L1068.7 926Z" fill="#121a25" stroke="#121a25"></path><path d="M633 1080L881.3 1080L673 936Z" fill="#1c212c" stroke="#1c212c"></path><path d="M446.7 1080L673 936L429.7 871Z" fill="#121a25" stroke="#121a25"></path><path d="M446.7 1080L633 1080L673 936Z" fill="#00101c" stroke="#00101c"></path><path d="M1286 1080L1255 889L1068.7 926Z" fill="#0a1520" stroke="#0a1520"></path><path d="M1068.7 926L1255 889L1040.7 758Z" fill="#232631" stroke="#232631"></path><path d="M1267 688L1469.3 718L1280 556Z" fill="#1c212c" stroke="#1c212c"></path><path d="M881.3 1080L1072.7 1080L1068.7 926Z" fill="#121a25" stroke="#121a25"></path><path d="M227.3 1080L446.7 1080L429.7 871Z" fill="#232631" stroke="#232631"></path><path d="M422.7 0L247.3 0L242.3 141Z" fill="#151c27" stroke="#151c27"></path><path d="M0 349L0 501L222.3 353Z" fill="#262833" stroke="#262833"></path><path d="M0 704L197.3 718L208.3 525Z" fill="#1c212c" stroke="#1c212c"></path><path d="M1470.3 160L1249 161L1254 358Z" fill="#0a1520" stroke="#0a1520"></path><path d="M1249 161L1280 0L1039.7 0Z" fill="#05131e" stroke="#05131e"></path><path d="M0 704L174.3 880L197.3 718Z" fill="#181e29" stroke="#181e29"></path><path d="M197.3 718L174.3 880L409.7 747Z" fill="#05131e" stroke="#05131e"></path><path d="M0 501L208.3 525L222.3 353Z" fill="#232631" stroke="#232631"></path><path d="M1531.3 863L1469.3 718L1255 889Z" fill="#121a25" stroke="#121a25"></path><path d="M1255 889L1469.3 718L1267 688Z" fill="#0e1823" stroke="#0e1823"></path><path d="M1522.3 504L1507.3 345L1254 358Z" fill="#121a25" stroke="#121a25"></path><path d="M1522.3 504L1254 358L1280 556Z" fill="#151c27" stroke="#151c27"></path><path d="M1469.3 718L1522.3 504L1280 556Z" fill="#1c212c" stroke="#1c212c"></path><path d="M0 349L222.3 353L0 205Z" fill="#0e1823" stroke="#0e1823"></path><path d="M0 205L222.3 353L242.3 141Z" fill="#151c27" stroke="#151c27"></path><path d="M1507.3 345L1470.3 160L1254 358Z" fill="#1c212c" stroke="#1c212c"></path><path d="M0 501L0 704L208.3 525Z" fill="#0e1823" stroke="#0e1823"></path><path d="M0 0L0 205L242.3 141Z" fill="#05131e" stroke="#05131e"></path><path d="M1072.7 1080L1286 1080L1068.7 926Z" fill="#0a1520" stroke="#0a1520"></path><path d="M174.3 880L227.3 1080L429.7 871Z" fill="#05131e" stroke="#05131e"></path><path d="M0 927L227.3 1080L174.3 880Z" fill="#0a1520" stroke="#0a1520"></path><path d="M1515.3 1080L1531.3 863L1255 889Z" fill="#181e29" stroke="#181e29"></path><path d="M1708.7 720L1710.7 534L1522.3 504Z" fill="#181e29" stroke="#181e29"></path><path d="M0 704L0 927L174.3 880Z" fill="#0a1520" stroke="#0a1520"></path><path d="M247.3 0L0 0L242.3 141Z" fill="#1c212c" stroke="#1c212c"></path><path d="M1698.7 173L1525.3 0L1470.3 160Z" fill="#262833" stroke="#262833"></path><path d="M1470.3 160L1525.3 0L1280 0Z" fill="#232631" stroke="#232631"></path><path d="M1698.7 173L1470.3 160L1507.3 345Z" fill="#1c212c" stroke="#1c212c"></path><path d="M1725.7 399L1507.3 345L1522.3 504Z" fill="#232631" stroke="#232631"></path><path d="M1708.7 720L1522.3 504L1469.3 718Z" fill="#121a25" stroke="#121a25"></path><path d="M1710.7 534L1725.7 399L1522.3 504Z" fill="#05131e" stroke="#05131e"></path><path d="M1286 1080L1515.3 1080L1255 889Z" fill="#262833" stroke="#262833"></path><path d="M1531.3 863L1708.7 720L1469.3 718Z" fill="#05131e" stroke="#05131e"></path><path d="M0 927L0 1080L227.3 1080Z" fill="#0a1520" stroke="#0a1520"></path><path d="M1695.7 920L1708.7 720L1531.3 863Z" fill="#121a25" stroke="#121a25"></path><path d="M1710.7 534L1920 535L1725.7 399Z" fill="#1c212c" stroke="#1c212c"></path><path d="M1725.7 399L1698.7 173L1507.3 345Z" fill="#05131e" stroke="#05131e"></path><path d="M1515.3 1080L1695.7 920L1531.3 863Z" fill="#262833" stroke="#262833"></path><path d="M1920 184L1745.7 0L1698.7 173Z" fill="#1f232e" stroke="#1f232e"></path><path d="M1698.7 173L1745.7 0L1525.3 0Z" fill="#181e29" stroke="#181e29"></path><path d="M1515.3 1080L1671.7 1080L1695.7 920Z" fill="#1c212c" stroke="#1c212c"></path><path d="M1920 693L1920 535L1710.7 534Z" fill="#1c212c" stroke="#1c212c"></path><path d="M1725.7 399L1920 184L1698.7 173Z" fill="#151c27" stroke="#151c27"></path><path d="M1920 693L1710.7 534L1708.7 720Z" fill="#1f232e" stroke="#1f232e"></path><path d="M1920 693L1708.7 720L1920 929Z" fill="#262833" stroke="#262833"></path><path d="M1920 535L1920 386L1725.7 399Z" fill="#181e29" stroke="#181e29"></path><path d="M1920 929L1708.7 720L1695.7 920Z" fill="#05131e" stroke="#05131e"></path><path d="M1920 386L1920 184L1725.7 399Z" fill="#00101c" stroke="#00101c"></path><path d="M1920 1080L1920 929L1695.7 920Z" fill="#0e1823" stroke="#0e1823"></path><path d="M1920 184L1920 0L1745.7 0Z" fill="#0a1520" stroke="#0a1520"></path><path d="M1671.7 1080L1920 1080L1695.7 920Z" fill="#1c212c" stroke="#1c212c"></path></g></svg>