<svg id="visual" viewBox="0 0 1280 1280" width="1280" height="1280" xmlns="http://www.w3.org/2000/svg" xmlns:xlink="http://www.w3.org/1999/xlink" version="1.1"><g stroke-width="1" stroke-linejoin="bevel"><path d="M588.9 715.1L743.1 595.9L574.9 572.9Z" fill="#05131e" stroke="#05131e"></path><path d="M588.9 715.1L749.1 722.1L743.1 595.9Z" fill="#1f232e" stroke="#1f232e"></path><path d="M749.1 722.1L813.3 680.1L743.1 595.9Z" fill="#1c212c" stroke="#1c212c"></path><path d="M813.3 680.1L816.3 539.9L743.1 595.9Z" fill="#1f232e" stroke="#1f232e"></path><path d="M684.1 401.7L545.9 461.7L574.9 572.9Z" fill="#262833" stroke="#262833"></path><path d="M684.1 401.7L574.9 572.9L743.1 595.9Z" fill="#232631" stroke="#232631"></path><path d="M574.9 572.9L400.7 682.1L588.9 715.1Z" fill="#181e29" stroke="#181e29"></path><path d="M588.9 715.1L708.1 846.3L749.1 722.1Z" fill="#1c212c" stroke="#1c212c"></path><path d="M749.1 722.1L814.3 813.3L813.3 680.1Z" fill="#151c27" stroke="#151c27"></path><path d="M816.3 539.9L684.1 401.7L743.1 595.9Z" fill="#0e1823" stroke="#0e1823"></path><path d="M708.1 846.3L814.3 813.3L749.1 722.1Z" fill="#0e1823" stroke="#0e1823"></path><path d="M813.3 680.1L965.6 531.9L816.3 539.9Z" fill="#121a25" stroke="#121a25"></path><path d="M545.9 461.7L403.7 606.9L574.9 572.9Z" fill="#00101c" stroke="#00101c"></path><path d="M588.9 715.1L551.9 869.3L708.1 846.3Z" fill="#05131e" stroke="#05131e"></path><path d="M452.7 865.3L551.9 869.3L588.9 715.1Z" fill="#232631" stroke="#232631"></path><path d="M403.7 606.9L400.7 682.1L574.9 572.9Z" fill="#05131e" stroke="#05131e"></path><path d="M816.3 539.9L813.3 405.7L684.1 401.7Z" fill="#121a25" stroke="#121a25"></path><path d="M400.7 682.1L452.7 865.3L588.9 715.1Z" fill="#151c27" stroke="#151c27"></path><path d="M684.1 401.7L560.9 322.4L545.9 461.7Z" fill="#262833" stroke="#262833"></path><path d="M390.7 401.7L314.4 588.9L403.7 606.9Z" fill="#1f232e" stroke="#1f232e"></path><path d="M746.1 279.4L560.9 322.4L684.1 401.7Z" fill="#0a1520" stroke="#0a1520"></path><path d="M1029.6 705.1L965.6 531.9L813.3 680.1Z" fill="#0e1823" stroke="#0e1823"></path><path d="M816.3 539.9L965.6 531.9L813.3 405.7Z" fill="#0a1520" stroke="#0a1520"></path><path d="M390.7 401.7L403.7 606.9L545.9 461.7Z" fill="#00101c" stroke="#00101c"></path><path d="M403.7 606.9L314.4 588.9L400.7 682.1Z" fill="#0a1520" stroke="#0a1520"></path><path d="M400.7 682.1L280.4 845.3L452.7 865.3Z" fill="#181e29" stroke="#181e29"></path><path d="M560.9 322.4L390.7 401.7L545.9 461.7Z" fill="#1c212c" stroke="#1c212c"></path><path d="M708.1 846.3L813.3 959.6L814.3 813.3Z" fill="#05131e" stroke="#05131e"></path><path d="M814.3 813.3L1029.6 705.1L813.3 680.1Z" fill="#0a1520" stroke="#0a1520"></path><path d="M732.1 1025.6L813.3 959.6L708.1 846.3Z" fill="#232631" stroke="#232631"></path><path d="M568.9 995.6L708.1 846.3L551.9 869.3Z" fill="#151c27" stroke="#151c27"></path><path d="M452.7 865.3L568.9 995.6L551.9 869.3Z" fill="#262833" stroke="#262833"></path><path d="M859.3 308.4L746.1 279.4L813.3 405.7Z" fill="#121a25" stroke="#121a25"></path><path d="M813.3 405.7L746.1 279.4L684.1 401.7Z" fill="#1c212c" stroke="#1c212c"></path><path d="M314.4 588.9L281.4 705.1L400.7 682.1Z" fill="#1f232e" stroke="#1f232e"></path><path d="M452.7 865.3L398.7 979.6L568.9 995.6Z" fill="#0e1823" stroke="#0e1823"></path><path d="M1033.6 879.3L1029.6 705.1L814.3 813.3Z" fill="#262833" stroke="#262833"></path><path d="M961.6 315.4L859.3 308.4L813.3 405.7Z" fill="#05131e" stroke="#05131e"></path><path d="M1099.8 600.9L1000.6 463.7L965.6 531.9Z" fill="#1f232e" stroke="#1f232e"></path><path d="M965.6 531.9L1000.6 463.7L813.3 405.7Z" fill="#1c212c" stroke="#1c212c"></path><path d="M568.9 995.6L732.1 1025.6L708.1 846.3Z" fill="#1c212c" stroke="#1c212c"></path><path d="M281.4 705.1L280.4 845.3L400.7 682.1Z" fill="#181e29" stroke="#181e29"></path><path d="M280.4 845.3L398.7 979.6L452.7 865.3Z" fill="#151c27" stroke="#151c27"></path><path d="M568.9 995.6L567.9 1102.8L732.1 1025.6Z" fill="#0e1823" stroke="#0e1823"></path><path d="M390.7 401.7L261.4 447.7L314.4 588.9Z" fill="#181e29" stroke="#181e29"></path><path d="M314.4 588.9L157.2 679.1L281.4 705.1Z" fill="#262833" stroke="#262833"></path><path d="M281.4 705.1L157.2 679.1L280.4 845.3Z" fill="#181e29" stroke="#181e29"></path><path d="M258.4 266.4L261.4 447.7L390.7 401.7Z" fill="#232631" stroke="#232631"></path><path d="M1000.6 463.7L961.6 315.4L813.3 405.7Z" fill="#0e1823" stroke="#0e1823"></path><path d="M873.3 136.2L722.1 154.2L746.1 279.4Z" fill="#1c212c" stroke="#1c212c"></path><path d="M449.7 165.2L388.7 273.4L560.9 322.4Z" fill="#1c212c" stroke="#1c212c"></path><path d="M560.9 322.4L388.7 273.4L390.7 401.7Z" fill="#1f232e" stroke="#1f232e"></path><path d="M1029.6 705.1L1099.8 600.9L965.6 531.9Z" fill="#1c212c" stroke="#1c212c"></path><path d="M1000.6 463.7L1120.8 287.4L961.6 315.4Z" fill="#05131e" stroke="#05131e"></path><path d="M994.6 976.6L1033.6 879.3L814.3 813.3Z" fill="#262833" stroke="#262833"></path><path d="M1029.6 705.1L1127.8 724.1L1099.8 600.9Z" fill="#121a25" stroke="#121a25"></path><path d="M994.6 976.6L814.3 813.3L813.3 959.6Z" fill="#232631" stroke="#232631"></path><path d="M459.7 1135.8L567.9 1102.8L568.9 995.6Z" fill="#262833" stroke="#262833"></path><path d="M875.3 1115.8L813.3 959.6L732.1 1025.6Z" fill="#121a25" stroke="#121a25"></path><path d="M875.3 1115.8L994.6 976.6L813.3 959.6Z" fill="#1c212c" stroke="#1c212c"></path><path d="M1113.8 869.3L1029.6 705.1L1033.6 879.3Z" fill="#181e29" stroke="#181e29"></path><path d="M1113.8 869.3L1127.8 724.1L1029.6 705.1Z" fill="#181e29" stroke="#181e29"></path><path d="M873.3 136.2L746.1 279.4L859.3 308.4Z" fill="#05131e" stroke="#05131e"></path><path d="M746.1 279.4L722.1 154.2L560.9 322.4Z" fill="#0a1520" stroke="#0a1520"></path><path d="M102.2 598.9L157.2 679.1L314.4 588.9Z" fill="#0e1823" stroke="#0e1823"></path><path d="M280.4 845.3L295.4 994.6L398.7 979.6Z" fill="#1f232e" stroke="#1f232e"></path><path d="M398.7 979.6L459.7 1135.8L568.9 995.6Z" fill="#121a25" stroke="#121a25"></path><path d="M127.2 880.3L295.4 994.6L280.4 845.3Z" fill="#0a1520" stroke="#0a1520"></path><path d="M590.9 124.2L449.7 165.2L560.9 322.4Z" fill="#0e1823" stroke="#0e1823"></path><path d="M388.7 273.4L258.4 266.4L390.7 401.7Z" fill="#121a25" stroke="#121a25"></path><path d="M722.1 154.2L590.9 124.2L560.9 322.4Z" fill="#00101c" stroke="#00101c"></path><path d="M1135.8 997.6L1113.8 869.3L1033.6 879.3Z" fill="#262833" stroke="#262833"></path><path d="M740.1 1163.8L875.3 1115.8L732.1 1025.6Z" fill="#262833" stroke="#262833"></path><path d="M994.6 976.6L1135.8 997.6L1033.6 879.3Z" fill="#0a1520" stroke="#0a1520"></path><path d="M567.9 1102.8L740.1 1163.8L732.1 1025.6Z" fill="#0a1520" stroke="#0a1520"></path><path d="M313.4 1158.8L459.7 1135.8L398.7 979.6Z" fill="#151c27" stroke="#151c27"></path><path d="M552.9 1280L739.1 1280L740.1 1163.8Z" fill="#0e1823" stroke="#0e1823"></path><path d="M309.4 121.2L258.4 266.4L388.7 273.4Z" fill="#121a25" stroke="#121a25"></path><path d="M261.4 447.7L102.2 598.9L314.4 588.9Z" fill="#181e29" stroke="#181e29"></path><path d="M258.4 266.4L171.2 388.7L261.4 447.7Z" fill="#262833" stroke="#262833"></path><path d="M961.6 315.4L873.3 136.2L859.3 308.4Z" fill="#262833" stroke="#262833"></path><path d="M722.1 154.2L728.1 0L590.9 124.2Z" fill="#0e1823" stroke="#0e1823"></path><path d="M171.2 388.7L102.2 598.9L261.4 447.7Z" fill="#0a1520" stroke="#0a1520"></path><path d="M157.2 679.1L127.2 880.3L280.4 845.3Z" fill="#1f232e" stroke="#1f232e"></path><path d="M1280 528.9L1164.8 399.7L1099.8 600.9Z" fill="#121a25" stroke="#121a25"></path><path d="M1099.8 600.9L1164.8 399.7L1000.6 463.7Z" fill="#232631" stroke="#232631"></path><path d="M961.6 315.4L1007.6 174.2L873.3 136.2Z" fill="#181e29" stroke="#181e29"></path><path d="M1280 689.1L1099.8 600.9L1127.8 724.1Z" fill="#181e29" stroke="#181e29"></path><path d="M0 817.3L127.2 880.3L157.2 679.1Z" fill="#151c27" stroke="#151c27"></path><path d="M295.4 994.6L313.4 1158.8L398.7 979.6Z" fill="#0e1823" stroke="#0e1823"></path><path d="M1120.8 287.4L1007.6 174.2L961.6 315.4Z" fill="#181e29" stroke="#181e29"></path><path d="M1164.8 399.7L1120.8 287.4L1000.6 463.7Z" fill="#1c212c" stroke="#1c212c"></path><path d="M1107.8 1135.8L1135.8 997.6L994.6 976.6Z" fill="#0a1520" stroke="#0a1520"></path><path d="M1280 813.3L1280 689.1L1127.8 724.1Z" fill="#181e29" stroke="#181e29"></path><path d="M449.7 165.2L309.4 121.2L388.7 273.4Z" fill="#00101c" stroke="#00101c"></path><path d="M258.4 266.4L136.2 272.4L171.2 388.7Z" fill="#232631" stroke="#232631"></path><path d="M416.7 0L309.4 121.2L449.7 165.2Z" fill="#0a1520" stroke="#0a1520"></path><path d="M105.2 1106.8L313.4 1158.8L295.4 994.6Z" fill="#232631" stroke="#232631"></path><path d="M552.9 1280L740.1 1163.8L567.9 1102.8Z" fill="#151c27" stroke="#151c27"></path><path d="M866.3 1280L977.6 1167.8L875.3 1115.8Z" fill="#1f232e" stroke="#1f232e"></path><path d="M875.3 1115.8L977.6 1167.8L994.6 976.6Z" fill="#232631" stroke="#232631"></path><path d="M866.3 1280L875.3 1115.8L740.1 1163.8Z" fill="#121a25" stroke="#121a25"></path><path d="M1280 813.3L1127.8 724.1L1113.8 869.3Z" fill="#0a1520" stroke="#0a1520"></path><path d="M1164.8 399.7L1280 265.4L1120.8 287.4Z" fill="#1f232e" stroke="#1f232e"></path><path d="M179.2 115.2L136.2 272.4L258.4 266.4Z" fill="#05131e" stroke="#05131e"></path><path d="M0 437.7L0 577.9L102.2 598.9Z" fill="#232631" stroke="#232631"></path><path d="M1280 689.1L1280 528.9L1099.8 600.9Z" fill="#151c27" stroke="#151c27"></path><path d="M833.3 0L728.1 0L722.1 154.2Z" fill="#00101c" stroke="#00101c"></path><path d="M590.9 124.2L545.9 0L449.7 165.2Z" fill="#151c27" stroke="#151c27"></path><path d="M833.3 0L722.1 154.2L873.3 136.2Z" fill="#0a1520" stroke="#0a1520"></path><path d="M728.1 0L545.9 0L590.9 124.2Z" fill="#00101c" stroke="#00101c"></path><path d="M552.9 1280L567.9 1102.8L459.7 1135.8Z" fill="#0a1520" stroke="#0a1520"></path><path d="M419.7 1280L552.9 1280L459.7 1135.8Z" fill="#05131e" stroke="#05131e"></path><path d="M1280 997.6L1280 813.3L1113.8 869.3Z" fill="#262833" stroke="#262833"></path><path d="M0 437.7L102.2 598.9L171.2 388.7Z" fill="#0a1520" stroke="#0a1520"></path><path d="M102.2 598.9L0 710.1L157.2 679.1Z" fill="#262833" stroke="#262833"></path><path d="M0 577.9L0 710.1L102.2 598.9Z" fill="#0e1823" stroke="#0e1823"></path><path d="M127.2 880.3L109.2 1022.6L295.4 994.6Z" fill="#232631" stroke="#232631"></path><path d="M994.6 0L833.3 0L873.3 136.2Z" fill="#181e29" stroke="#181e29"></path><path d="M0 1031.6L109.2 1022.6L127.2 880.3Z" fill="#0a1520" stroke="#0a1520"></path><path d="M1280 528.9L1280 395.7L1164.8 399.7Z" fill="#1c212c" stroke="#1c212c"></path><path d="M1120.8 287.4L1132.8 131.2L1007.6 174.2Z" fill="#05131e" stroke="#05131e"></path><path d="M1007.6 174.2L994.6 0L873.3 136.2Z" fill="#0a1520" stroke="#0a1520"></path><path d="M977.6 1167.8L1107.8 1135.8L994.6 976.6Z" fill="#181e29" stroke="#181e29"></path><path d="M1135.8 997.6L1280 997.6L1113.8 869.3Z" fill="#1c212c" stroke="#1c212c"></path><path d="M1034.6 1280L1107.8 1135.8L977.6 1167.8Z" fill="#05131e" stroke="#05131e"></path><path d="M0 710.1L0 817.3L157.2 679.1Z" fill="#00101c" stroke="#00101c"></path><path d="M739.1 1280L866.3 1280L740.1 1163.8Z" fill="#05131e" stroke="#05131e"></path><path d="M309.4 121.2L179.2 115.2L258.4 266.4Z" fill="#00101c" stroke="#00101c"></path><path d="M545.9 0L416.7 0L449.7 165.2Z" fill="#121a25" stroke="#121a25"></path><path d="M136.2 272.4L0 437.7L171.2 388.7Z" fill="#151c27" stroke="#151c27"></path><path d="M293.4 1280L419.7 1280L313.4 1158.8Z" fill="#0a1520" stroke="#0a1520"></path><path d="M313.4 1158.8L419.7 1280L459.7 1135.8Z" fill="#00101c" stroke="#00101c"></path><path d="M1280 265.4L1132.8 131.2L1120.8 287.4Z" fill="#1f232e" stroke="#1f232e"></path><path d="M295.4 0L179.2 115.2L309.4 121.2Z" fill="#00101c" stroke="#00101c"></path><path d="M136.2 272.4L0 264.4L0 437.7Z" fill="#1c212c" stroke="#1c212c"></path><path d="M0 1031.6L105.2 1106.8L109.2 1022.6Z" fill="#0a1520" stroke="#0a1520"></path><path d="M109.2 1022.6L105.2 1106.8L295.4 994.6Z" fill="#181e29" stroke="#181e29"></path><path d="M1132.8 131.2L994.6 0L1007.6 174.2Z" fill="#121a25" stroke="#121a25"></path><path d="M1280 1147.8L1280 997.6L1135.8 997.6Z" fill="#121a25" stroke="#121a25"></path><path d="M1280 395.7L1280 265.4L1164.8 399.7Z" fill="#1c212c" stroke="#1c212c"></path><path d="M1132.8 131.2L1118.8 0L994.6 0Z" fill="#1c212c" stroke="#1c212c"></path><path d="M416.7 0L295.4 0L309.4 121.2Z" fill="#0e1823" stroke="#0e1823"></path><path d="M147.2 1280L293.4 1280L313.4 1158.8Z" fill="#0e1823" stroke="#0e1823"></path><path d="M866.3 1280L1034.6 1280L977.6 1167.8Z" fill="#181e29" stroke="#181e29"></path><path d="M1107.8 1135.8L1280 1147.8L1135.8 997.6Z" fill="#0a1520" stroke="#0a1520"></path><path d="M0 115.2L0 264.4L136.2 272.4Z" fill="#00101c" stroke="#00101c"></path><path d="M0 115.2L136.2 272.4L179.2 115.2Z" fill="#0a1520" stroke="#0a1520"></path><path d="M0 817.3L0 1031.6L127.2 880.3Z" fill="#0e1823" stroke="#0e1823"></path><path d="M105.2 1106.8L147.2 1280L313.4 1158.8Z" fill="#151c27" stroke="#151c27"></path><path d="M1280 0L1118.8 0L1132.8 131.2Z" fill="#0e1823" stroke="#0e1823"></path><path d="M1034.6 1280L1116.8 1280L1107.8 1135.8Z" fill="#05131e" stroke="#05131e"></path><path d="M1280 265.4L1280 150.2L1132.8 131.2Z" fill="#181e29" stroke="#181e29"></path><path d="M295.4 0L155.2 0L179.2 115.2Z" fill="#1f232e" stroke="#1f232e"></path><path d="M1116.8 1280L1280 1147.8L1107.8 1135.8Z" fill="#0a1520" stroke="#0a1520"></path><path d="M0 1153.8L147.2 1280L105.2 1106.8Z" fill="#00101c" stroke="#00101c"></path><path d="M0 1031.6L0 1153.8L105.2 1106.8Z" fill="#0a1520" stroke="#0a1520"></path><path d="M155.2 0L0 115.2L179.2 115.2Z" fill="#1c212c" stroke="#1c212c"></path><path d="M1280 150.2L1280 0L1132.8 131.2Z" fill="#181e29" stroke="#181e29"></path><path d="M1116.8 1280L1280 1280L1280 1147.8Z" fill="#121a25" stroke="#121a25"></path><path d="M155.2 0L0 0L0 115.2Z" fill="#121a25" stroke="#121a25"></path><path d="M0 1153.8L0 1280L147.2 1280Z" fill="#232631" stroke="#232631"></path></g></svg>