<svg id="visual" viewBox="0 0 1920 1080" width="1920" height="1080" xmlns="http://www.w3.org/2000/svg" xmlns:xlink="http://www.w3.org/1999/xlink" version="1.1"><path d="M0 217L175 217L175 217L349 217L349 152L524 152L524 217L698 217L698 87L873 87L873 195L1047 195L1047 120L1222 120L1222 163L1396 163L1396 98L1571 98L1571 131L1745 131L1745 98L1920 98L1920 206L1920 0L1920 0L1745 0L1745 0L1571 0L1571 0L1396 0L1396 0L1222 0L1222 0L1047 0L1047 0L873 0L873 0L698 0L698 0L524 0L524 0L349 0L349 0L175 0L175 0L0 0Z" fill="#fa7268"></path><path d="M0 563L175 563L175 627L349 627L349 368L524 368L524 519L698 519L698 541L873 541L873 638L1047 638L1047 509L1222 509L1222 422L1396 422L1396 563L1571 563L1571 541L1745 541L1745 476L1920 476L1920 476L1920 204L1920 96L1745 96L1745 129L1571 129L1571 96L1396 96L1396 161L1222 161L1222 118L1047 118L1047 193L873 193L873 85L698 85L698 215L524 215L524 150L349 150L349 215L175 215L175 215L0 215Z" fill="#ea5e66"></path><path d="M0 703L175 703L175 768L349 768L349 552L524 552L524 660L698 660L698 606L873 606L873 768L1047 768L1047 649L1222 649L1222 595L1396 595L1396 638L1571 638L1571 671L1745 671L1745 552L1920 552L1920 627L1920 474L1920 474L1745 474L1745 539L1571 539L1571 561L1396 561L1396 420L1222 420L1222 507L1047 507L1047 636L873 636L873 539L698 539L698 517L524 517L524 366L349 366L349 625L175 625L175 561L0 561Z" fill="#d84a64"></path><path d="M0 854L175 854L175 876L349 876L349 789L524 789L524 897L698 897L698 908L873 908L873 897L1047 897L1047 746L1222 746L1222 735L1396 735L1396 800L1571 800L1571 822L1745 822L1745 854L1920 854L1920 725L1920 625L1920 550L1745 550L1745 669L1571 669L1571 636L1396 636L1396 593L1222 593L1222 647L1047 647L1047 766L873 766L873 604L698 604L698 658L524 658L524 550L349 550L349 766L175 766L175 701L0 701Z" fill="#c53762"></path><path d="M0 1081L175 1081L175 1081L349 1081L349 1081L524 1081L524 1081L698 1081L698 1081L873 1081L873 1081L1047 1081L1047 1081L1222 1081L1222 1081L1396 1081L1396 1081L1571 1081L1571 1081L1745 1081L1745 1081L1920 1081L1920 1081L1920 723L1920 852L1745 852L1745 820L1571 820L1571 798L1396 798L1396 733L1222 733L1222 744L1047 744L1047 895L873 895L873 906L698 906L698 895L524 895L524 787L349 787L349 874L175 874L175 852L0 852Z" fill="#b0235f"></path></svg>